# xmcd
#
# Track frame offsets:
# 150
# 35819
# 54750
# 94791
# 125813
# 147860
# 184018
# 205421
# 241297
# 279832
#
# Disc length: 3991 seconds
#
#
# Revision: 0
# Processed by: cddbd v1.5.1PL2 Copyright (c) Steve Scherf et al.
# Submitted via: FreeRIP 2.944 
#
DISCID=8e0f950a
DTITLE=PK - Chishala
DYEAR=1900
DGENRE=Blues
TTITLE0=Nakufele
TTITLE1=Umwaume Walutuku
TTITLE2=Church Elder
TTITLE3=Minofu Ya Mbowa
TTITLE4=Impumpa Mukowa
TTITLE5=Kubwaiche
TTITLE6=Mutete
TTITLE7=Na Musonda
TTITLE8=Pali Iwe
TTITLE9=Umunandi
EXTD=
EXTT0=
EXTT1=
EXTT2=
EXTT3=
EXTT4=
EXTT5=
EXTT6=
EXTT7=
EXTT8=
EXTT9=
PLAYORDER=
